<?xml version="1.0" encoding="UTF-8"?><svg id="b" xmlns="http://www.w3.org/2000/svg" viewBox="0 0 163.89 70.91"><defs><style>.d{fill:#fff;}</style></defs><g id="c"><path class="d" d="m40.7,61.93v-2.37c.21.19.47.37.76.52.29.15.6.29.93.39s.66.19.99.25.63.09.91.09c.97,0,1.69-.16,2.16-.48s.71-.79.71-1.4c0-.33-.08-.61-.24-.86-.16-.24-.38-.46-.66-.66-.28-.2-.62-.39-1-.58-.38-.18-.79-.38-1.23-.58-.47-.25-.91-.51-1.31-.76s-.76-.54-1.06-.86-.54-.67-.71-1.06c-.17-.39-.26-.85-.26-1.38,0-.65.15-1.22.44-1.7.29-.48.68-.88,1.16-1.19.48-.31,1.03-.54,1.64-.7.61-.15,1.24-.23,1.88-.23,1.45,0,2.51.16,3.17.49v2.27c-.79-.57-1.8-.85-3.04-.85-.34,0-.68.03-1.02.1s-.64.17-.91.32c-.27.15-.48.34-.65.57-.17.23-.25.51-.25.84,0,.31.06.58.19.8.13.23.32.43.57.62.25.19.55.37.91.55s.77.37,1.24.58c.48.25.94.52,1.37.79.43.28.81.58,1.13.92.32.33.58.71.77,1.12.19.41.28.87.28,1.4,0,.7-.14,1.3-.43,1.78-.28.48-.67.88-1.15,1.18-.48.3-1.03.52-1.66.66-.62.14-1.29.2-1.98.2-.23,0-.52-.02-.86-.05s-.68-.09-1.04-.15c-.35-.07-.69-.15-1.01-.25-.32-.1-.57-.21-.76-.33Zm22.8.55h-2.52l-1.25-3.53h-5.45l-1.2,3.53h-2.51l5.19-13.86h2.59l5.15,13.86Zm-4.38-5.4l-1.92-5.53c-.06-.18-.12-.47-.18-.87h-.04c-.06.37-.12.66-.19.87l-1.9,5.53h4.24Zm21.17,5.4h-2.28v-8.97c0-.73.05-1.63.14-2.7h-.04c-.14.61-.27,1.04-.38,1.3l-4.14,10.36h-1.59l-4.15-10.29c-.12-.3-.24-.76-.37-1.38h-.04c.05.55.08,1.46.08,2.72v8.95h-2.13v-13.86h3.24l3.64,9.23c.28.71.46,1.24.54,1.59h.05c.24-.73.43-1.27.58-1.62l3.71-9.19h3.12v13.86Zm5.7-5.03v5.03h-2.29v-13.86h4.2c1.59,0,2.83.37,3.7,1.11.88.74,1.31,1.78,1.31,3.13s-.46,2.45-1.37,3.31c-.91.86-2.15,1.29-3.71,1.29h-1.85Zm0-6.94v5.07h1.49c.99,0,1.74-.23,2.25-.69.52-.46.77-1.1.77-1.93,0-1.63-.95-2.45-2.84-2.45h-1.67Zm16.96,11.97h-7.68v-13.86h2.3v11.92h5.37v1.94Zm9.78,0h-7.78v-13.86h7.47v1.95h-5.17v3.92h4.77v1.94h-4.77v4.1h5.48v1.94Zm1.83-.55v-2.37c.21.19.47.37.76.52.29.15.6.29.93.39s.66.19.99.25.63.09.91.09c.97,0,1.69-.16,2.16-.48s.71-.79.71-1.4c0-.33-.08-.61-.24-.86-.16-.24-.38-.46-.66-.66-.28-.2-.62-.39-1-.58-.38-.18-.79-.38-1.23-.58-.47-.25-.91-.51-1.31-.76s-.76-.54-1.06-.86-.54-.67-.71-1.06c-.17-.39-.26-.85-.26-1.38,0-.65.15-1.22.44-1.7.29-.48.68-.88,1.16-1.19.48-.31,1.03-.54,1.64-.7.61-.15,1.24-.23,1.88-.23,1.45,0,2.51.16,3.17.49v2.27c-.79-.57-1.8-.85-3.04-.85-.34,0-.68.03-1.02.1s-.64.17-.91.32c-.27.15-.48.34-.65.57-.17.23-.25.51-.25.84,0,.31.06.58.19.8.13.23.32.43.57.62.25.19.55.37.91.55s.77.37,1.24.58c.48.25.94.52,1.37.79.43.28.81.58,1.13.92.32.33.58.71.77,1.12.19.41.28.87.28,1.4,0,.7-.14,1.3-.43,1.78-.28.48-.67.88-1.15,1.18-.48.3-1.03.52-1.66.66-.62.14-1.29.2-1.98.2-.23,0-.52-.02-.86-.05s-.68-.09-1.04-.15c-.35-.07-.69-.15-1.01-.25-.32-.1-.57-.21-.76-.33ZM53.99,14.11h-1.97v6.92h1.97c2.67,0,4.01-1.17,4.01-3.5s-1.34-3.42-4.01-3.42Zm-38.83,0h-1.98v6.92h1.98c2.67,0,4.01-1.17,4.01-3.5s-1.34-3.42-4.01-3.42ZM70.21.13h0S0,0,0,0v40.45h0v30.46h163.89V.13h-93.69Zm-23.22,10.14h7.87c5.62,0,8.43,2.35,8.43,7.07,0,2.23-.81,4.04-2.41,5.41-1.61,1.38-3.77,2.06-6.46,2.06h-2.39v7.65h-5.03V10.27Zm-19.75,6.34h4.91v2.51h.06c1.17-1.93,2.88-2.89,5.12-2.89,3.53,0,5.29,2.18,5.29,6.53v9.71h-4.9v-8.81c0-2.46-.88-3.69-2.64-3.69-.85,0-1.55.32-2.1.97-.55.65-.82,1.48-.82,2.47v9.05h-4.91v-15.86Zm-19.08-6.34h7.87c5.62,0,8.43,2.35,8.43,7.07,0,2.23-.81,4.04-2.41,5.41-1.61,1.38-3.77,2.06-6.46,2.06h-2.4v7.65h-5.02V10.27Zm153.45,58.36H2.28v-25.88l65.61.11h0s93.72,0,93.72,0v25.76Zm-91.4-28.17V2.41h91.4v38.04h-91.4Zm6.62-9v-4.66c.7.71,1.47,1.24,2.3,1.6.83.35,1.66.53,2.5.53.49,0,.93-.05,1.29-.16.37-.11.68-.26.92-.44.25-.19.43-.41.55-.67.12-.26.18-.54.18-.84,0-.41-.1-.77-.29-1.09-.19-.32-.46-.62-.8-.89-.34-.27-.73-.53-1.2-.79-.46-.25-.96-.51-1.49-.77-1.36-.68-2.37-1.51-3.04-2.49s-1-2.17-1-3.56c0-1.09.18-2.02.55-2.81s.86-1.43,1.49-1.93,1.35-.88,2.18-1.11c.83-.24,1.7-.36,2.62-.36s1.71.07,2.41.2c.7.13,1.35.33,1.94.61v4.36c-.29-.24-.61-.46-.95-.64-.34-.18-.7-.34-1.06-.46-.36-.12-.73-.21-1.09-.27-.36-.06-.7-.09-1.03-.09-.45,0-.85.05-1.21.15-.36.1-.67.25-.92.43-.25.18-.45.41-.58.66-.14.26-.21.55-.21.87,0,.35.08.66.23.94s.37.54.66.79c.28.25.63.49,1.03.73.41.24.86.48,1.37.74.7.35,1.32.72,1.88,1.11.55.39,1.03.84,1.43,1.33.4.5.7,1.06.91,1.7.21.64.32,1.38.32,2.22,0,1.17-.18,2.15-.55,2.94s-.87,1.43-1.5,1.92c-.63.49-1.37.84-2.2,1.06-.84.21-1.72.32-2.65.32s-1.86-.1-2.73-.29c-.86-.19-1.61-.49-2.24-.87Zm25.06-14.87l-4.4,10.1v5.57h-3.86v-5.51l-4.29-10.16h4.26l1.72,4.97s.05.18.11.4.13.51.22.88h.05c.09-.53.19-.95.3-1.24l1.76-5.01h4.12Zm14.96,15.67h-3.78l-4.98-8.54c-.18-.28-.33-.54-.45-.79-.12-.24-.21-.44-.28-.58h-.04c.02.28.04.64.05,1.09.01.44.02.95.02,1.52v7.3h-3.56v-15.67h4l4.76,8.22c.14.22.27.45.38.69.12.24.23.46.35.68h.04c-.02-.18-.04-.47-.05-.85-.01-.38-.02-.85-.02-1.39v-7.35h3.56v15.67Zm13.81-12.36h-3.81v12.36h-3.86v-12.36h-3.81v-3.31h11.49v3.31Zm10.99,12.36h-8.67v-15.67h8.34v3.16h-4.48v3.05h4.12v3.16h-4.12v3.15h4.81v3.15Zm14.43,0h-4.47l-1.79-3.99c-.1-.22-.17-.43-.22-.63-.05-.19-.11-.42-.16-.67h-.04c-.02.13-.06.28-.11.47-.05.18-.13.39-.23.63l-1.88,4.2h-4.49l4.36-7.84-3.97-7.83h4.58l1.46,3.67c.16.37.3.81.42,1.33h.05c.04-.17.09-.38.15-.6.06-.23.16-.48.3-.77l1.69-3.63h4.24l-4.09,7.77,4.21,7.9Z"/></g></svg>